<svg height="40" width="40" fill="#B91C1C" xmlns="http://www.w3.org/2000/svg" xmlns:xlink="http://www.w3.org/1999/xlink" 
	 viewBox="0 0 512 512"  xml:space="preserve">
<g>
	<path class="st0" d="M441.79,99.619c0-26.092-31.893-57.994-86.996-57.994c-55.103,0-49.294-49.303-60.904-40.594
		c-11.601,8.692-26.102,49.294-8.692,69.595c17.392,20.301,2.891,60.904-5.8,72.495c-4.846,6.458-150.456,214.17-150.456,214.17
		L20.124,454.006L110.019,512l85.267-102.09c0,0,38.062-1.028,82.123-16.068c2.801,11.078,11.961,19.59,23.39,21.454l5.918,50.041
		c-6.827,1.712-13.042,3.729-17.968,5.485c-6.62,2.37-10.907,4.269-11.069,4.342c-4.756,2.116-6.908,7.683-4.792,12.438
		c2.108,4.756,7.674,6.899,12.438,4.792c0.225-0.099,7.278-3.206,16.915-6.214c4.81-1.495,10.258-2.99,15.78-4.071
		c5.494-1.108,11.06-1.793,16.014-1.784c4.774-0.009,8.926,0.648,11.88,1.856c1.486,0.586,2.684,1.288,3.665,2.081
		c0.973,0.801,1.757,1.684,2.45,2.855c2.62,4.485,8.394,5.998,12.888,3.35c4.494-2.62,5.999-8.394,3.36-12.898
		c-1.81-3.098-4.152-5.773-6.8-7.926c-3.982-3.234-8.548-5.26-13.195-6.484c-4.656-1.225-9.448-1.675-14.248-1.675
		c-2.134,0-4.269,0.099-6.395,0.261l-5.386-48.186c10.574-4.333,18.04-14.717,18.04-26.84v-24.832
		c17.824-13.005,34.081-29.542,46.394-50.573c49.303-84.095,29.002-147.89,29.002-147.89s39.278-28.065,73.692,9.664
		c0.568,0.631,1.964,1.081,2.135-0.756C494.551,140.572,478.438,99.619,441.79,99.619z M367.881,237.764l-53.923,82.69
		c-9.925,15.195-25.642,25.669-43.502,28.957c-3.981,0.73-7.989,1.09-11.979,1.09c-13.897,0-27.56-4.378-38.963-12.664
		l-14.843-10.78c-3.882-2.838-4.738-8.278-1.91-12.15c2.819-3.891,8.268-4.747,12.15-1.927l14.834,10.78
		c8.403,6.134,18.482,9.358,28.731,9.358c2.936,0,5.899-0.27,8.836-0.829c13.168-2.414,24.76-10.141,32.064-21.345l53.932-82.682
		c2.612-4.017,8.016-5.151,12.033-2.531C369.367,228.352,370.502,233.756,367.881,237.764z"/>
</g>
</svg>